<svg xmlns="http://www.w3.org/2000/svg" viewBox="0 0 100 100">
  <defs>
    <linearGradient id="bg" x1="0%" y1="0%" x2="100%" y2="100%">
      <stop offset="0%" style="stop-color:#6366f1"/>
      <stop offset="100%" style="stop-color:#8b5cf6"/>
    </linearGradient>
  </defs>
  <!-- Background circle -->
  <circle cx="50" cy="50" r="48" fill="url(#bg)" stroke="#1e1b4b" stroke-width="2"/>
  <!-- Roulette segments -->
  <path d="M50,50 L50,5 A45,45 0 0,1 89.5,27.5 Z" fill="#FF6B6B"/>
  <path d="M50,50 L89.5,27.5 A45,45 0 0,1 89.5,72.5 Z" fill="#4ECDC4"/>
  <path d="M50,50 L89.5,72.5 A45,45 0 0,1 50,95 Z" fill="#45B7D1"/>
  <path d="M50,50 L50,95 A45,45 0 0,1 10.5,72.5 Z" fill="#96CEB4"/>
  <path d="M50,50 L10.5,72.5 A45,45 0 0,1 10.5,27.5 Z" fill="#FFEAA7"/>
  <path d="M50,50 L10.5,27.5 A45,45 0 0,1 50,5 Z" fill="#DDA0DD"/>
  <!-- Center circle -->
  <circle cx="50" cy="50" r="12" fill="#1e1b4b" stroke="#6366f1" stroke-width="2"/>
  <!-- Pointer triangle at top -->
  <polygon points="50,0 44,12 56,12" fill="#f8fafc" stroke="#1e1b4b" stroke-width="1"/>
</svg>
